# xmcd
#
# Track frame offsets:
#	150
#	14273
#	32827
#	47391
#	66008
#	80622
#	105691
#	119893
#	138109
#	155593
#	169025
#	187552
#	202118
#	217983
#	234607
#	248639
#	281987
#	292629
#	308613
#
# Disc length: 4352
#
# Revision: 2
# Processed by: cddbd v1.5.1PL0 Copyright (c) Steve Scherf et al.
# Submitted via: audiograbber 1.81.02
# Normalized: r1:DSETVAR1,TDELIM( - )
#
DISCID=0310fe13
DTITLE=Various Artist - Ballermann Championss-Hits 20001 CD 2
DYEAR=1900
DGENRE=
TTITLE0=Niemann - Im Osten
TTITLE1=Die Inselfeger - Country Roads
TTITLE2=T.Gottschalk&Die besorgten Väter - What happend to Rock´n Roll
TTITLE3=Jürgen Drews - König von Mallorca Mix 2001
TTITLE4=Captain Jack - Iko Iko
TTITLE5=Gigi DÁgostino - Elisir
TTITLE6=Jeanett - Will you be there
TTITLE7=Ricky Martin - Livin´la vida loca
TTITLE8=Walter - Nie wieder hier
TTITLE9=Markus - Ich will Spass
TTITLE10=Captain Hollywood - Danger Sign
TTITLE11=Rednex - Hold me for a while
TTITLE12=Olaf Henning - Alarmstufe Rot
TTITLE13=Melissa - Bulletproof
TTITLE14=Fancy - Na Na Na Na Hey Hey Hey Kiss him goodbye
TTITLE15=Matthias Carras - 100% Power Hit Mix
TTITLE16=RIA - Mädchen müssen härter sein
TTITLE17=A and R - I don´t like Big Brother
TTITLE18=DJ Leo - Du Depp Du
EXTD=
EXTT0=
EXTT1=
EXTT2=
EXTT3=
EXTT4=
EXTT5=
EXTT6=
EXTT7=
EXTT8=
EXTT9=
EXTT10=
EXTT11=
EXTT12=
EXTT13=
EXTT14=
EXTT15=
EXTT16=
EXTT17=
EXTT18=
PLAYORDER=
